<svg id="Layer_1" data-name="Layer 1" xmlns="http://www.w3.org/2000/svg" viewBox="0 0 333.08 717.4"><defs><style>.cls-1,.cls-3,.cls-4,.cls-5{fill:none;stroke-miterlimit:10;}.cls-1{stroke:#010101;}.cls-1,.cls-3{stroke-width:7px;}.cls-2{fill:#010101;}.cls-3,.cls-4,.cls-5{stroke:#1d1d1b;}.cls-4,.cls-5{stroke-width:3px;}.cls-5{stroke-dasharray:12.31 12.31;}</style></defs><title>floor plan_1</title><polyline class="cls-1" points="32.25 488.62 23.75 488.62 23.75 15.62 309.25 15.62 309.25 277.12 253.75 277.12"/><line class="cls-1" x1="32.75" y1="146.62" x2="23.75" y2="146.62"/><line class="cls-1" x1="300.25" y1="146.62" x2="309.25" y2="146.62"/><line class="cls-1" x1="300.25" y1="250.62" x2="309.25" y2="250.62"/><line class="cls-1" x1="32.75" y1="250.62" x2="23.75" y2="250.62"/><line class="cls-1" x1="32.75" y1="364.12" x2="23.75" y2="364.12"/><line class="cls-1" x1="23.75" y1="488.62" x2="23.75" y2="713.84"/><line class="cls-1" x1="121.92" y1="266.58" x2="121.92" y2="717.4"/><rect class="cls-2" x="124.75" y="257.62" width="29" height="56"/><rect class="cls-2" x="264" y="351.79" width="29" height="74.99" transform="translate(-226.04 578.62) rotate(-90)"/><polyline class="cls-3" points="309.25 277.12 309.25 393.93 253.54 393.93 253.54 325.84"/><polyline class="cls-3" points="253.54 326.33 253.54 393.93 197.84 393.93 197.84 314.62"/><line class="cls-4" x1="23.75" y1="488.62" x2="29.75" y2="488.62"/><line class="cls-5" x1="42.06" y1="488.62" x2="109.76" y2="488.62"/><line class="cls-4" x1="115.92" y1="488.62" x2="121.92" y2="488.62"/><circle class="cls-2" cx="326.67" cy="6.42" r="6.42"/><circle class="cls-2" cx="326.67" cy="146.62" r="6.42"/><circle class="cls-2" cx="170.08" cy="146.62" r="6.42"/><circle class="cls-2" cx="326.67" cy="250.62" r="6.42"/><circle class="cls-2" cx="6.42" cy="6.42" r="6.42"/><circle class="cls-2" cx="6.42" cy="146.62" r="6.42"/><circle class="cls-2" cx="6.42" cy="250.62" r="6.42"/></svg>